<?xml version="1.0" encoding="UTF-8" standalone="no"?>
<!-- Created with Inkscape (http://www.inkscape.org/) -->

<svg
   width="761.59998"
   height="761.59998"
   id="svg2"
   version="1.1"
   xmlns="http://www.w3.org/2000/svg"
   xmlns:svg="http://www.w3.org/2000/svg"
   xmlns:rdf="http://www.w3.org/1999/02/22-rdf-syntax-ns#"
   xmlns:cc="http://creativecommons.org/ns#"
   xmlns:dc="http://purl.org/dc/elements/1.1/">
  <defs
     id="defs4" />
  <metadata
     id="metadata7">
    <rdf:RDF>
      <cc:Work
         rdf:about="">
        <dc:format>image/svg+xml</dc:format>
        <dc:type
           rdf:resource="http://purl.org/dc/dcmitype/StillImage" />
      </cc:Work>
    </rdf:RDF>
  </metadata>
  <rect
     style="fill:#ffdd00;fill-opacity:1;fill-rule:nonzero;stroke:none;stroke-width:1.06667"
     id="rect3068"
     width="761.59998"
     height="761.59998"
     x="2.4987793e-07"
     y="1.3032227e-05"
     ry="70.439888" />
  <g
     id="g27002"
     transform="translate(-8.0812049,4.4087112)">
    <path
       id="path26859"
       style="fill:#02346d;fill-opacity:1;stroke:none;stroke-width:12.8;stroke-linecap:butt;stroke-linejoin:miter;stroke-miterlimit:4;stroke-dasharray:none;stroke-opacity:1"
       d="M 518.78516,36.658203 C 477.12206,36.230891 431.85215,51.785049 399.12109,72.664062 349.2452,104.47971 245.45464,56.844067 214.80273,95.060547 184.15081,133.27704 374.66187,198.37446 455.07617,238.0918 535.49047,277.80913 658.6322,466.60702 703.49609,425.68359 748.35998,384.76017 635.95888,279.79976 639.76758,200.81445 643.57631,121.82913 629.94704,82.636728 578.9668,52.017578 561.44234,41.492245 540.60868,36.882033 518.78516,36.658203 Z m 6.92187,62.089844 c 5.31892,0.786406 11.31926,1.393493 15.37891,5.314453 6.54423,4.24157 11.6204,10.04587 16.40039,15.99023 5.62742,3.90863 8.13007,10.44527 7.34765,17.10547 -0.44439,10.28042 -6.9588,20.12 -16.58203,24.01368 -6.50935,4.07945 -14.3709,3.05214 -21.39453,5.43359 -6.82292,3.33732 -14.41276,2.43052 -21.63281,4.12695 -6.66618,-0.38535 -5.66592,7.26465 -0.4043,8.72852 4.86489,2.28887 8.27044,6.75201 13.46875,8.47265 4.08609,1.67782 8.76876,2.27152 13.02149,0.85547 6.82246,-0.11494 11.00729,7.62424 6.79883,13.09571 -2.40774,5.86058 -8.92675,8.35203 -14.78516,9.15039 -6.24779,3.16305 -14.85074,4.50106 -20.04102,-1.29102 -4.06355,-4.9525 -8.12794,-9.99752 -14.02539,-12.90039 -6.79022,-2.7369 -11.99509,-7.98693 -18.42383,-11.25977 -4.72486,-2.18511 -11.57692,-1.70691 -13.67578,-7.56836 -2.18165,-4.5732 -1.03842,-11.13065 3.85352,-13.4414 8.20565,-6.27319 19.33903,-3.47357 28.43555,-7.4668 6.32389,-2.25859 13.15375,-1.43709 19.68945,-2.64844 5.23169,-0.36823 10.34348,-0.5971 15.20703,-2.81445 6.29659,-1.41753 14.69146,-6.66012 11.18359,-14.23633 -2.26914,-4.68267 -5.44643,-8.96812 -8.87304,-12.85547 -5.60882,-5.15233 -13.59103,-5.37778 -20.60742,-6.91211 -7.41521,-1.98243 -7.38017,-11.58771 -1.18946,-14.98632 6.30847,-3.619375 13.93797,-2.776238 20.84961,-3.906253 z" />
    <path
       style="fill:#02346d;fill-opacity:1;fill-rule:nonzero;stroke:none;stroke-width:1.85888"
       d="M 260.61719,163.03906 C 146.96459,200.52352 64.927734,307.55428 64.927734,433.76367 c 0,157.41717 127.612126,285.02735 285.029296,285.02735 157.41717,0 285.02731,-127.61018 285.02735,-285.02735 0,-5.50475 -0.17256,-10.96881 -0.48047,-16.39648 C 620.08757,405.24713 604.8505,390.4242 589.11328,374.48242 541.4656,326.21539 488.89672,268.0502 450.30664,248.99023 409.78233,228.97491 340.43071,202.1255 285.01367,175.35156 c -8.51868,-4.11567 -16.67635,-8.2197 -24.39648,-12.3125 z m -1.30274,147.41602 c 32.40119,0 60.20675,19.65659 72.15235,47.69336 h 28.56836 c 11.94504,-28.03677 39.7492,-47.69336 72.15039,-47.69336 43.29697,0 78.39648,35.09951 78.39648,78.39648 0,43.29511 -35.09951,78.39258 -78.39648,78.39258 -43.29883,0 -78.39453,-35.09747 -78.39453,-78.39258 0,-6.75116 0.85436,-13.30217 2.45898,-19.55273 h -20.99805 c 1.60471,6.25056 2.45899,12.80157 2.45899,19.55273 0,43.29511 -35.09766,78.39258 -78.39649,78.39258 -43.29511,0 -78.39453,-35.09747 -78.39453,-78.39258 0,-43.29697 35.09942,-78.39648 78.39453,-78.39648 z m 28.47266,222.60156 c 0.21563,0.24351 22.05582,24.33008 58.28906,24.33008 35.91351,0 52.2875,-23.215 52.44922,-23.44922 l 15.31836,10.53125 c -0.88483,1.28634 -22.18419,31.50781 -67.76758,31.50781 -44.91977,0 -71.16098,-29.39946 -72.25586,-30.65234 z"
       id="path3028" />
    <path
       id="path3044"
       style="fill:#02346d;fill-opacity:1;fill-rule:nonzero;stroke:none;stroke-width:1.85888"
       d="m 274.89295,400.85144 c 0,15.22792 -12.34852,27.57459 -27.5783,27.57459 -15.22979,0 -27.57645,-12.34667 -27.57645,-27.57459 0,-15.2335 12.34666,-27.5783 27.57645,-27.5783 15.22978,0 27.5783,12.3448 27.5783,27.5783" />
    <path
       id="path3052"
       style="fill:#02346d;fill-opacity:1;fill-rule:nonzero;stroke:none;stroke-width:1.85888"
       d="m 446.57235,400.85144 c 0,14.56988 -11.81317,26.38676 -26.38676,26.38676 -14.5736,0 -26.38677,-11.81688 -26.38677,-26.38676 0,-14.5736 11.81317,-26.38862 26.38677,-26.38862 14.57359,0 26.38676,11.81502 26.38676,26.38862" />
  </g>
</svg>
