<?xml version="1.0" encoding="UTF-8" standalone="no"?>
<!-- Created with Inkscape (http://www.inkscape.org/) -->

<svg
   width="761.59998"
   height="761.59998"
   id="svg2"
   version="1.1"
   xmlns="http://www.w3.org/2000/svg"
   xmlns:svg="http://www.w3.org/2000/svg"
   xmlns:rdf="http://www.w3.org/1999/02/22-rdf-syntax-ns#"
   xmlns:cc="http://creativecommons.org/ns#"
   xmlns:dc="http://purl.org/dc/elements/1.1/">
  <defs
     id="defs4" />
  <metadata
     id="metadata7">
    <rdf:RDF>
      <cc:Work
         rdf:about="">
        <dc:format>image/svg+xml</dc:format>
        <dc:type
           rdf:resource="http://purl.org/dc/dcmitype/StillImage" />
      </cc:Work>
    </rdf:RDF>
  </metadata>
  <g
     id="g27002">
    <path
       id="path26859"
       style="fill:#02346d;fill-opacity:1;stroke:none;stroke-width:12.8;stroke-linecap:butt;stroke-linejoin:miter;stroke-miterlimit:4;stroke-dasharray:none;stroke-opacity:1"
       d="M 518.78516 36.658203 C 477.12206 36.230891 431.85215 51.785049 399.12109 72.664062 C 349.2452 104.47971 245.45464 56.844067 214.80273 95.060547 C 184.15081 133.27704 374.66187 198.37446 455.07617 238.0918 C 535.49047 277.80913 658.6322 466.60702 703.49609 425.68359 C 748.35998 384.76017 635.95888 279.79976 639.76758 200.81445 C 643.57631 121.82913 629.94704 82.636728 578.9668 52.017578 C 561.44234 41.492245 540.60868 36.882033 518.78516 36.658203 z M 525.70703 98.748047 C 531.02595 99.534453 537.02629 100.14154 541.08594 104.0625 C 547.63017 108.30407 552.70634 114.10837 557.48633 120.05273 C 563.11375 123.96136 565.6164 130.498 564.83398 137.1582 C 564.38959 147.43862 557.87518 157.2782 548.25195 161.17188 C 541.7426 165.25133 533.88105 164.22402 526.85742 166.60547 C 520.0345 169.94279 512.44466 169.03599 505.22461 170.73242 C 498.55843 170.34707 499.55869 177.99707 504.82031 179.46094 C 509.6852 181.74981 513.09075 186.21295 518.28906 187.93359 C 522.37515 189.61141 527.05782 190.20511 531.31055 188.78906 C 538.13301 188.67412 542.31784 196.4133 538.10938 201.88477 C 535.70164 207.74535 529.18263 210.2368 523.32422 211.03516 C 517.07643 214.19821 508.47348 215.53622 503.2832 209.74414 C 499.21965 204.79164 495.15526 199.74662 489.25781 196.84375 C 482.46759 194.10685 477.26272 188.85682 470.83398 185.58398 C 466.10912 183.39887 459.25706 183.87707 457.1582 178.01562 C 454.97655 173.44242 456.11978 166.88497 461.01172 164.57422 C 469.21737 158.30103 480.35075 161.10065 489.44727 157.10742 C 495.77116 154.84883 502.60102 155.67033 509.13672 154.45898 C 514.36841 154.09075 519.4802 153.86188 524.34375 151.64453 C 530.64034 150.227 539.03521 144.98441 535.52734 137.4082 C 533.2582 132.72553 530.08091 128.44008 526.6543 124.55273 C 521.04548 119.4004 513.06327 119.17495 506.04688 117.64062 C 498.63167 115.65819 498.66671 106.05291 504.85742 102.6543 C 511.16589 99.034925 518.79539 99.878062 525.70703 98.748047 z " />
    <path
       style="fill:#02346d;fill-opacity:1;fill-rule:nonzero;stroke:none;stroke-width:1.85888"
       d="M 260.61719,163.03906 C 146.96459,200.52352 64.927734,307.55428 64.927734,433.76367 c 0,157.41717 127.612126,285.02735 285.029296,285.02735 157.41717,0 285.02731,-127.61018 285.02735,-285.02735 0,-5.50475 -0.17256,-10.96881 -0.48047,-16.39648 C 620.08757,405.24713 604.8505,390.4242 589.11328,374.48242 541.4656,326.21539 488.89672,268.0502 450.30664,248.99023 409.78233,228.97491 340.43071,202.1255 285.01367,175.35156 c -8.51868,-4.11567 -16.67635,-8.2197 -24.39648,-12.3125 z m -1.30274,147.41602 c 32.40119,0 60.20675,19.65659 72.15235,47.69336 h 28.56836 c 11.94504,-28.03677 39.7492,-47.69336 72.15039,-47.69336 43.29697,0 78.39648,35.09951 78.39648,78.39648 0,43.29511 -35.09951,78.39258 -78.39648,78.39258 -43.29883,0 -78.39453,-35.09747 -78.39453,-78.39258 0,-6.75116 0.85436,-13.30217 2.45898,-19.55273 h -20.99805 c 1.60471,6.25056 2.45899,12.80157 2.45899,19.55273 0,43.29511 -35.09766,78.39258 -78.39649,78.39258 -43.29511,0 -78.39453,-35.09747 -78.39453,-78.39258 0,-43.29697 35.09942,-78.39648 78.39453,-78.39648 z m 28.47266,222.60156 c 0.21563,0.24351 22.05582,24.33008 58.28906,24.33008 35.91351,0 52.2875,-23.215 52.44922,-23.44922 l 15.31836,10.53125 c -0.88483,1.28634 -22.18419,31.50781 -67.76758,31.50781 -44.91977,0 -71.16098,-29.39946 -72.25586,-30.65234 z"
       id="path3028" />
    <path
       id="path3044"
       style="fill:#02346d;fill-opacity:1;fill-rule:nonzero;stroke:none;stroke-width:1.85888"
       d="m 274.89295,400.85144 c 0,15.22792 -12.34852,27.57459 -27.5783,27.57459 -15.22979,0 -27.57645,-12.34667 -27.57645,-27.57459 0,-15.2335 12.34666,-27.5783 27.57645,-27.5783 15.22978,0 27.5783,12.3448 27.5783,27.5783" />
    <path
       id="path3052"
       style="fill:#02346d;fill-opacity:1;fill-rule:nonzero;stroke:none;stroke-width:1.85888"
       d="m 446.57235,400.85144 c 0,14.56988 -11.81317,26.38676 -26.38676,26.38676 -14.5736,0 -26.38677,-11.81688 -26.38677,-26.38676 0,-14.5736 11.81317,-26.38862 26.38677,-26.38862 14.57359,0 26.38676,11.81502 26.38676,26.38862" />
  </g>
  <g
     aria-label="DEBUG"
     transform="rotate(40.964693)"
     id="text30403"
     style="font-size:315.528px;line-height:1.25;font-family:'Great Vibes';-inkscape-font-specification:'Great Vibes';letter-spacing:0px;word-spacing:0px;stroke:none;stroke-width:0">
    <path
       d="M 260.50417,199.87177 V -15.002813 q 0,-2.839752 1.57764,-4.417392 1.89317,-1.57764 6.94162,-1.57764 h 30.60622 q 15.46087,0 27.13541,4.73292 11.67453,4.73292 19.24721,16.09192854 7.57267,11.04348046 11.359,30.29068946 4.10187,19.247209 4.10187,47.960258 0,34.708079 -4.10187,58.372679 -4.10186,23.34908 -12.30559,37.23231 -7.8882,13.88323 -19.24721,20.19379 -11.35901,5.99504 -25.87329,5.99504 z m 25.55777,-24.29566 h 14.19876 q 6.31056,0 11.99007,-3.47081 5.6795,-3.47081 10.09689,-13.5677 4.73293,-10.41243 7.25715,-30.29069 2.83975,-19.87827 2.83975,-52.693183 0,-21.771433 -2.20869,-35.970194 Q 328.3427,25.384773 324.24083,17.181044 320.4545,8.977316 314.45946,5.8220358 308.46443,2.6667557 300.57623,2.6667557 h -14.51429 z"
       style="font-family:'Yanone Kaffeesatz';-inkscape-font-specification:'Yanone Kaffeesatz';fill:#ff0000;stroke:none"
       id="path846" />
    <path
       d="M 382.61324,199.87177 V -15.949397 q 0,0 0.63106,-2.524224 0.94658,-2.524224 4.73292,-2.524224 h 75.72672 q 0,10.412424 -0.31552,15.1453443 -0.31553,4.7329202 -1.26212,6.31056027 -0.94658,1.57764003 -3.15528,1.57764003 H 408.17101 V 176.83822 h 54.27082 q 0,10.72795 -0.31553,15.7764 -0.31552,4.73292 -1.26211,5.99503 -0.94658,1.26212 -3.47081,1.26212 z M 386.08405,91.330128 V 67.981055 h 69.73169 q 0,14.514289 -0.63105,18.931681 -0.63106,4.417392 -4.10187,4.417392 z"
       style="font-family:'Yanone Kaffeesatz';-inkscape-font-specification:'Yanone Kaffeesatz';fill:#ff0000;stroke:none"
       id="path848" />
    <path
       d="M 483.26659,199.87177 V -15.002813 q 0,-2.839752 1.57764,-4.417392 1.89317,-1.57764 6.94161,-1.57764 h 31.23728 q 9.46584,0 18.93168,2.208696 9.46584,1.893168 17.03851,7.257144 7.57267,5.0484482 12.30559,14.5142887 4.73292,9.4658403 4.73292,24.9267133 0,17.354041 -4.73292,28.081993 -4.73292,10.727953 -11.67453,16.407457 -6.94162,5.363976 -13.88324,6.31056 5.36398,0.315528 11.67454,2.524224 6.62609,1.893169 12.30559,6.941617 5.99504,4.73292 9.46584,13.567702 3.78634,8.83479 3.78634,23.03355 0,15.7764 -3.15528,28.08199 -2.83975,12.30559 -8.51926,21.14038 -5.36397,8.83478 -12.93664,14.82981 -7.57268,5.67951 -16.40746,8.51926 -8.83479,2.52423 -18.93168,2.52423 z m 26.18882,-22.40249 h 14.19876 q 5.99504,0 11.04348,-2.83976 5.36398,-2.83975 9.46584,-8.83478 4.10187,-6.31056 6.31056,-15.7764 2.52423,-9.46584 2.52423,-23.03355 0,-12.30559 -2.2087,-19.24721 -1.89317,-7.25714 -5.99503,-10.727948 -3.78634,-3.786336 -9.15031,-4.73292 -5.36398,-0.946584 -11.67454,-0.946584 h -14.51429 z m 0,-108.226113 h 15.46088 q 6.62608,0 11.67453,-3.786336 5.36398,-3.786336 8.20373,-11.990065 3.15528,-8.203728 3.15528,-20.824849 0,-12.936649 -3.47081,-19.562737 -3.15528,-6.6260881 -8.51925,-8.8347842 -5.36398,-2.5242242 -11.35901,-2.5242242 h -15.14535 z"
       style="font-family:'Yanone Kaffeesatz';-inkscape-font-specification:'Yanone Kaffeesatz';fill:#ff0000;stroke:none"
       id="path850" />
    <path
       d="m 658.7,203.02705 q -18.93168,0 -30.29069,-5.36398 -11.35901,-5.36398 -17.03852,-14.51429 -5.6795,-9.46584 -7.57267,-21.77143 -1.89317,-12.3056 -1.89317,-25.8733 V -15.633869 q 0,-2.839752 1.26212,-3.786336 1.26211,-0.946584 6.62608,-1.262112 5.36398,-0.315528 18.61616,-0.315528 V 136.13511 q 0,9.46584 0.94658,17.66956 0.94659,7.88821 4.10187,13.56771 3.4708,5.6795 9.46584,8.83478 5.99503,3.15528 15.7764,3.15528 8.51925,0 16.09193,-1.57764 7.57267,-1.89316 11.67453,-3.78633 V -15.633869 q 0,-2.839752 1.26211,-3.786336 1.26212,-0.946584 6.62609,-1.262112 5.36398,-0.315528 17.9851,-0.315528 V 191.66804 q -5.6795,3.78633 -20.19379,7.57267 -14.51429,3.78634 -33.44597,3.78634 z"
       style="font-family:'Yanone Kaffeesatz';-inkscape-font-specification:'Yanone Kaffeesatz';fill:#ff0000;stroke:none"
       id="path852" />
    <path
       d="m 795.00758,203.02705 q -15.7764,0 -27.13541,-4.73292 -11.35901,-4.73293 -18.61615,-16.40746 -6.94162,-11.67454 -10.41243,-32.81492 -3.15528,-21.4559 -3.15528,-54.586342 0,-37.232306 4.73292,-60.265851 4.73292,-23.349073 13.56771,-35.9701935 8.83478,-12.9366485 21.14038,-17.6695685 12.62112,-4.732921 28.39752,-4.732921 15.46087,0 24.29565,5.048449 9.15032,4.73292 9.15032,11.0434802 0,4.4173922 -0.94659,8.83478439 -0.94658,4.10186421 -2.20869,7.88820041 -4.10187,-3.4708082 -10.72796,-5.3639763 -6.62608,-2.2086961 -14.51428,-2.2086961 -11.99007,0 -20.82485,4.4173922 -8.51926,4.4173922 -14.19876,14.8298172 -5.36398,10.412424 -7.8882,28.081993 -2.52423,17.669569 -2.52423,44.173922 0,28.08199 1.89317,45.12051 2.2087,17.03851 6.31056,25.87329 4.41739,8.51926 10.41242,11.35901 6.31056,2.83975 13.88324,2.83975 5.6795,0 9.46584,-1.26211 3.78633,-1.26211 5.99503,-3.15528 2.52422,-1.89317 3.15528,-3.15528 V 91.645656 H 790.90572 V 75.553727 q 0,-5.363976 5.99503,-5.363976 h 41.33417 V 188.82828 q -3.78634,3.15528 -9.78137,6.62609 -5.6795,3.15528 -14.19876,5.36398 -8.20373,2.2087 -19.24721,2.2087 z"
       style="font-family:'Yanone Kaffeesatz';-inkscape-font-specification:'Yanone Kaffeesatz';fill:#ff0000;stroke:none"
       id="path854" />
  </g>
</svg>
