<?xml version="1.0" encoding="UTF-8" standalone="no"?>
<!-- Created with Inkscape (http://www.inkscape.org/) -->

<svg
   width="1092.2667"
   height="533.33331"
   id="svg2"
   version="1.1"
   xmlns="http://www.w3.org/2000/svg"
   xmlns:svg="http://www.w3.org/2000/svg"
   xmlns:rdf="http://www.w3.org/1999/02/22-rdf-syntax-ns#"
   xmlns:cc="http://creativecommons.org/ns#"
   xmlns:dc="http://purl.org/dc/elements/1.1/">
  <defs
     id="defs4" />
  <metadata
     id="metadata7">
    <rdf:RDF>
      <cc:Work
         rdf:about="">
        <dc:format>image/svg+xml</dc:format>
        <dc:type
           rdf:resource="http://purl.org/dc/dcmitype/StillImage" />
      </cc:Work>
    </rdf:RDF>
  </metadata>
  <path
     id="path903"
     style="font-style:normal;font-variant:normal;font-weight:500;font-stretch:normal;font-size:155.038px;line-height:1.25;font-family:qurps;-inkscape-font-specification:'qurps Medium';letter-spacing:0px;word-spacing:0px;fill:#02346d;fill-opacity:1;stroke:none;stroke-width:1.06667"
     d="m 577.58563,74.15888 c 16.59668,-0.60857 0.24398,26.25352 2.57388,37.01839 -6.13084,17.25036 -3.59729,37.04971 -10.59832,53.44578 -14.35104,-4.55062 -11.13972,-29.29036 -21.87794,-40.27359 -5.08569,-7.56689 -17.34558,-33.89086 -14.91334,-9.68988 0.13747,16.58225 4.09051,34.81048 -0.52992,50.56909 -14.264,1.84918 -2.33999,-27.12665 -6.53878,-37.03732 1.85318,-15.9025 -8.98053,-43.4057 6.84159,-51.30719 5.87227,11.73264 9.9788,26.12339 17.94143,37.85112 5.63786,6.74936 16.49615,35.692 17.18441,11.31748 5.49469,-16.94838 5.49349,-34.82954 9.91699,-51.89388 z" />
  <path
     id="path905"
     style="font-style:normal;font-variant:normal;font-weight:500;font-stretch:normal;font-size:155.038px;line-height:1.25;font-family:qurps;-inkscape-font-specification:'qurps Medium';letter-spacing:0px;word-spacing:0px;fill:#02346d;fill-opacity:1;stroke:none;stroke-width:1.06667"
     d="m 609.83478,127.45325 c 17.05441,-4.26489 30.74781,14.14836 25.00066,29.97809 -4.9405,15.1854 -24.15682,22.21828 -36.81021,10.97682 -14.1796,-10.33686 -7.2002,-35.14203 9.27353,-39.51657 z m 9.15997,8.85717 c -18.08336,-6.43255 -29.19205,22.43109 -10.42798,28.12338 16.16379,6.54705 28.48821,-23.56814 10.42798,-28.12338 z m 6.5861,-28.16124 c 17.5537,-4.87213 -3.15166,19.17239 0,0 z m -20.59101,-0.75702 c 15.03956,0.47287 -7.54428,17.39239 -3.10379,2.34677 l 1.53297,-1.60867 z" />
  <path
     id="path907"
     style="font-style:normal;font-variant:normal;font-weight:500;font-stretch:normal;font-size:155.038px;line-height:1.25;font-family:qurps;-inkscape-font-specification:'qurps Medium';letter-spacing:0px;word-spacing:0px;fill:#02346d;fill-opacity:1;stroke:none;stroke-width:1.06667"
     d="m 689.17072,70.90368 c 10.03274,6.28226 29.28901,-1.37671 37.81326,8.2137 -6.2935,10.12936 -36.30206,-8.40821 -33.23158,15.62725 -6.49456,12.82159 2.48402,16.24847 12.33777,18.93082 0.0441,12.47464 -20.00914,-1.61485 -16.7008,15.67752 -7.96625,11.3114 8.30095,33.80298 -6.57992,38.7535 -8.93839,-16.55535 1.3881,-36.14233 0.76069,-54.092 3.15768,-14.20389 3.48878,-28.80946 5.60058,-43.11079 z" />
  <path
     id="path909"
     style="font-style:normal;font-variant:normal;font-weight:500;font-stretch:normal;font-size:155.038px;line-height:1.25;font-family:qurps;-inkscape-font-specification:'qurps Medium';letter-spacing:0px;word-spacing:0px;fill:#02346d;fill-opacity:1;stroke:none;stroke-width:1.06667"
     d="m 739.2856,129.42151 c 10.67173,3.04126 -0.7243,44.65285 -6.18868,22.10505 2.60684,-6.55053 0.0662,-18.22932 6.18868,-22.10505 z m -6.7375,-21.95365 c 18.62493,-2.44836 -2.618,20.05169 0,0 z" />
  <path
     id="path911"
     style="font-style:normal;font-variant:normal;font-weight:500;font-stretch:normal;font-size:155.038px;line-height:1.25;font-family:qurps;-inkscape-font-specification:'qurps Medium';letter-spacing:0px;word-spacing:0px;fill:#02346d;fill-opacity:1;stroke:none;stroke-width:1.06667"
     d="m 754.72885,122.75972 c 11.11918,4.80789 31.87332,-1.03561 31.2461,19.72043 4.43975,8.72459 -9.11987,29.909 -10.69294,11.90417 8.6951,-12.26464 -7.86125,-29.96083 -14.19417,-11.33641 -0.67797,9.68689 -14.32367,25.02593 -12.68012,6.5104 1.81133,-8.62321 3.84514,-21.27377 6.32113,-26.79859 z" />
  <path
     id="path913"
     style="font-style:normal;font-variant:normal;font-weight:500;font-stretch:normal;font-size:155.038px;line-height:1.25;font-family:qurps;-inkscape-font-specification:'qurps Medium';letter-spacing:0px;word-spacing:0px;fill:#02346d;fill-opacity:1;stroke:none;stroke-width:1.06667"
     d="m 833.08067,72.56913 c 14.27512,5.32738 0.72326,27.71938 1.70803,39.69636 0.12556,16.74509 -1.71247,34.13072 1.77427,50.69211 -7.66875,9.82161 -10.11453,-12.52358 -18.31994,0.75702 -11.95759,2.74443 -30.96032,-4.06545 -26.26868,-19.53118 5.17232,-9.53351 14.16626,-21.90937 24.65668,-15.46843 19.79131,2.0002 7.6125,-27.74336 13.19444,-39.41569 -0.20771,-5.09705 -1.26105,-13.23842 3.2552,-16.73019 z m -8.85716,63.81699 c -12.85392,-9.36362 -38.48229,15.83054 -13.75889,18.86878 9.11534,1.24236 17.3842,-10.97074 13.75889,-18.86878 z" />
  <path
     id="path915"
     style="font-style:normal;font-variant:normal;font-weight:500;font-stretch:normal;font-size:155.038px;line-height:1.25;font-family:qurps;-inkscape-font-specification:'qurps Medium';letter-spacing:0px;word-spacing:0px;fill:#02346d;fill-opacity:1;stroke:none;stroke-width:1.06667"
     d="m 858.28952,125.485 c 17.43729,-10.71651 26.63969,11.4081 5.90478,16.57879 -21.50669,-0.71846 -7.4724,25.11388 8.40295,17.033 10.05215,15.75191 -36.47802,10.53581 -28.86148,-10.01162 1.48305,-9.06783 7.54207,-17.78093 14.55375,-23.60017 z m 7.26742,6.73749 c -3.30893,-2.20689 -2.98244,2.33641 0,0 z" />
  <path
     id="path917"
     style="font-style:normal;font-variant:normal;font-weight:500;font-stretch:normal;font-size:155.038px;line-height:1.25;font-family:qurps;-inkscape-font-specification:'qurps Medium';letter-spacing:0px;word-spacing:0px;fill:#02346d;fill-opacity:1;stroke:none;stroke-width:1.06667"
     d="m 906.51185,121.85129 c 13.11388,-6.04703 26.1598,17.07212 5.98048,8.85716 -23.16585,-5.01906 -13.15751,32.94109 -28.08553,31.79494 -3.86154,-10.20812 -2.36278,-32.58014 6.5861,-40.10326 4.73529,5.46606 9.79414,1.06413 15.51895,-0.54884 z" />
  <path
     id="path919"
     style="font-style:normal;font-variant:normal;font-weight:500;font-stretch:normal;font-size:155.038px;line-height:1.25;font-family:qurps;-inkscape-font-specification:'qurps Medium';letter-spacing:0px;word-spacing:0px;fill:#02346d;fill-opacity:1;stroke:none;stroke-width:1.06667"
     d="m 939.3666,76.42995 c 10.38837,4.72531 -4.26085,23.86582 -1.66545,34.7284 -2.04296,15.93911 -1.55465,32.62916 1.13553,48.54406 4.83011,2.534 25.59113,-17.14529 16.93838,0.41636 -8.76137,11.92422 -30.42527,14.14514 -26.70396,-6.24544 0.0499,-16.72305 -0.47044,-31.52805 0.68133,-47.01108 3.32453,-9.95137 2.31798,-22.50844 9.61417,-30.4323 z m -7.19171,26.11727 c 3.56804,-1.90314 -1.60397,-1.3076 0,0 z" />
  <path
     id="path921"
     style="font-style:normal;font-variant:normal;font-weight:500;font-stretch:normal;font-size:155.038px;line-height:1.25;font-family:qurps;-inkscape-font-specification:'qurps Medium';letter-spacing:0px;word-spacing:0px;fill:#02346d;fill-opacity:1;stroke:none;stroke-width:1.06667"
     d="m 977.59623,125.485 c 17.43726,-10.71651 26.63967,11.40807 5.90476,16.57879 -21.5067,-0.71844 -7.47235,25.1139 8.403,17.033 10.05191,15.75198 -36.47801,10.53575 -28.86152,-10.01162 1.48305,-9.06783 7.54207,-17.78094 14.55376,-23.60017 z m 7.26746,6.73749 c -3.30898,-2.20686 -2.9825,2.33638 0,0 z" />
  <path
     id="path923"
     style="font-style:normal;font-variant:normal;font-weight:500;font-stretch:normal;font-size:155.038px;line-height:1.25;font-family:qurps;-inkscape-font-specification:'qurps Medium';letter-spacing:0px;word-spacing:0px;fill:#02346d;fill-opacity:1;stroke:none;stroke-width:1.06667"
     d="m 1008.7856,129.42151 c 10.672,3.04131 -0.724,44.65284 -6.1884,22.10505 2.6065,-6.5505 0.067,-18.22985 6.1884,-22.10505 z m -6.7375,-21.95365 c 18.6251,-2.44823 -2.61821,20.05161 0,0 z" />
  <path
     id="path925"
     style="font-style:normal;font-variant:normal;font-weight:500;font-stretch:normal;font-size:155.038px;line-height:1.25;font-family:qurps;-inkscape-font-specification:'qurps Medium';letter-spacing:0px;word-spacing:0px;fill:#02346d;fill-opacity:1;stroke:none;stroke-width:1.06667"
     d="m 1024.2288,122.75972 c 11.1192,4.8079 31.8733,-1.03564 31.2462,19.72043 4.4398,8.72461 -9.1201,29.90897 -10.6929,11.90417 8.6949,-12.26472 -7.8613,-29.96078 -14.1943,-11.33641 -0.6779,9.68692 -14.3237,25.02591 -12.6801,6.5104 1.8113,-8.62322 3.8451,-21.27369 6.3211,-26.79859 z" />
  <path
     style="fill:#000000;fill-opacity:0;stroke:#02346d;stroke-width:16.0814;stroke-linecap:round;stroke-linejoin:round;stroke-opacity:1"
     id="imagebot_6"
     d="m 715.61729,306.14698 c 0,54.61334 44.28066,98.87888 98.87885,98.87888 54.61334,0 98.87887,-44.26554 98.87887,-98.87888 0,-54.61331 -44.26553,-98.87886 -98.87887,-98.87886 -54.59819,0 -98.87885,44.26555 -98.87885,98.87886 z" />
  <path
     style="fill:#000000;fill-opacity:0;stroke:#02346d;stroke-width:45.4029;stroke-linecap:round;stroke-opacity:1"
     id="imagebot_5"
     d="m 730.19069,391.43179 -90.61348,81.98568" />
  <path
     style="fill:#02346d;fill-opacity:1;stroke:none;stroke-width:0.151154"
     d="m 774.29404,238.72898 -1.54461,0.99667 0.42985,0.46763 -0.18895,1.04864 -1.1242,1.61546 0.48652,6.66022 -0.37316,1.79496 -0.60462,-0.0236 0.64241,2.89554 -0.75577,-0.0331 -0.0614,1.50682 -1.02501,2.98056 1.45958,1.26592 -0.94471,1.01557 -0.47236,0.43457 -3.73162,-1.05336 -0.41567,-0.92582 -3.01363,-0.11809 -1.20924,0.0992 0.25508,1.21868 -0.66603,1.4832 0.40623,1.2234 -4.1898,2.84831 -0.8408,2.07837 -0.53848,2.09254 0.41095,1.07225 -0.37316,1.79495 0.25507,1.21868 -0.81718,1.47848 -0.90692,0.11336 1.18561,0.5007 1.41707,2.31927 1.09587,-1.01084 0.87386,0.78883 0.76994,-0.42039 1.48792,0.51014 1.47375,0.96361 0.55266,1.23285 1.5021,0.20783 1.48792,0.51487 1.14782,1.4029 -0.17477,0.5999 -1.50682,-0.0614 -0.18894,1.04863 -1.23285,0.55266 0.54794,1.37928 -0.1795,0.75104 1.33677,0.50543 0.69909,1.384 1.02029,0.94944 1.17616,0.79828 -1.89887,2.18701 1.07697,-0.55738 1.19507,0.34954 0.4015,1.22341 -1.0628,3.88277 -0.1795,0.74632 2.11616,-0.0661 0.20784,2.27203 0.30703,3.63243 -1.2423,0.85496 0.26452,0.91637 -1.40762,1.30371 1.28481,1.86108 -0.88331,-0.63768 -1.11948,-2.15867 -2.57435,0.19839 -0.43456,-0.46763 -1.68632,0.68491 -0.0425,1.05336 -0.96833,1.62018 -4.12367,1.19506 -0.45819,0.13226 -1.2234,0.40151 -1.4832,-0.6613 -0.50542,1.33677 -1.0817,0.5621 -2.49404,-1.76189 -1.15728,-1.25174 -1.99806,-2.79635 -1.47848,-0.81718 -2.23897,-0.54321 -0.31648,0.29286 -1.53988,0.84079 -0.53376,1.94139 0.0756,1.965 -0.0236,0.60462 -0.97778,1.77134 0.55266,1.22812 -0.5007,1.18562 1.31315,1.11004 -0.76994,0.42039 -1.26119,1.30843 0.74632,0.1795 -0.92582,0.56682 0.27869,0.61407 -0.25507,2.55545 1.99334,2.9475 -0.0425,1.05808 3.55685,1.64852 3.5096,2.71133 1.78551,0.67074 1.33677,0.51015 1.77134,0.97305 1.5446,-0.84079 2.2248,4.76608 -0.33065,0.7416 -3.09393,1.83746 0.87386,0.78884 -0.97778,1.77134 1.28953,1.71465 -1.2423,0.85496 0.67547,1.98863 1.162,1.10531 -0.46763,0.42984 1.72882,2.03114 3.07977,-1.53516 0.75104,0.0331 0.41568,0.9211 1.0817,-0.5621 0.96833,2.15394 1.48792,0.51014 1.52099,-0.2409 2.66881,-2.6074 1.34149,0.35426 2.3051,-0.9636 1.16672,0.95415 1.96028,0.0803 2.28621,-0.51487 0.6424,-1.02974 3.4482,0.59045 1.05336,-3.73162 4.05282,0.61879 0.70381,-2.53656 2.73494,-0.49597 0.89748,0.18894 0.76049,-0.12281 1.76662,1.12893 0.35426,2.42791 1.53044,-0.54321 0.69436,1.53988 3.29705,0.58573 0.581,0.47235 -0.4818,0.73688 1.18089,0.65185 4.84638,-0.41095 1.24229,2.91916 2.09254,0.53849 0.41568,0.9211 1.10059,-1.162 1.34621,0.35427 0.23146,5.44154 1.03918,0.49598 0.11809,0.76049 2.1445,-0.8219 2.39957,0.39678 0.98722,1.70048 1.19979,0.19839 -1.00612,2.52711 0.0897,1.51154 2.42319,-0.20311 1.01084,1.09586 -0.052,1.35567 0.55738,1.08169 0.44874,0.17005 2.07365,0.98723 2.56017,0.10392 1.19978,0.19839 1.86109,2.48931 0.60934,-0.12753 0.052,-1.35567 0.7416,0.33065 0.4818,-0.73215 0.66602,-1.4832 0.59989,0.0236 0.24091,1.51627 0.62351,-0.42513 -0.42985,3.15062 1.31316,1.11004 -0.33065,0.7416 0.55265,1.22813 1.75245,1.43124 1.965,-0.0756 2.8058,-2.14922 1.53043,-0.54321 1.4029,-1.14783 -0.4204,-0.77466 0.76522,-0.26925 0.65185,-1.18089 1.13366,-1.91777 -1.4218,-2.16811 -0.15115,-0.009 -0.0709,-1.965 1.13838,-2.0642 -0.12282,-0.76049 0.9211,-0.41568 0.47708,-0.58572 -0.27397,-0.61406 1.22813,-0.55266 0.0661,-1.65797 -1.11004,-2.46098 0.33537,-0.73687 -1.9461,-0.38261 -0.89276,-0.33538 0.0236,-0.60461 -0.83135,-1.84219 0.0897,-2.26259 0.21728,-1.65325 0.23618,-2.10198 -2.09726,-0.38734 1.12893,-1.76189 1.63908,0.51487 -0.5007,1.19034 0.42512,0.61879 1.87998,-1.73355 0.51487,-1.48792 0.45818,-0.13226 0.76995,-0.42512 -0.28814,-0.31176 0.93999,-0.86914 -0.71799,-0.93054 -1.60601,-1.27536 1.99335,-0.8219 0.3212,-0.44402 0.73215,0.48653 0.62351,-0.42984 0.33065,-0.7416 -0.44874,-0.17005 0.79356,-0.87386 0.20312,-1.34622 1.56822,-1.45013 3.80247,-0.75105 1.27536,2.01224 1.84692,2.94278 0.45818,-0.13226 0.96361,-1.46903 0.63296,-0.73215 1.27536,-1.75717 0.49597,-1.03918 1.11004,-1.31315 0.28814,0.31648 1.98862,-0.67547 0.17949,-0.74632 -0.0142,-3.32067 3.01836,-0.0331 2.62158,-1.40289 1.51154,-0.0897 0.15115,0.005 0.61407,-0.27397 -0.4204,-0.77466 2.36651,-2.62158 0.29758,0.16532 1.51154,-0.0897 0.88803,0.48652 -0.18422,0.74633 3.11756,1.33204 -0.0472,1.20923 0.9022,0.0331 0.51959,-1.63908 1.3037,-2.36178 -1.02028,-0.94471 -1.60129,-1.4218 0.79356,-1.02501 0.74632,0.1795 0.41568,0.92109 0.77938,-0.57155 0.58572,0.47708 -1.24229,0.85496 1.63907,0.5196 0.35899,-1.49265 1.23757,-0.70853 0.1795,-0.74633 -0.28813,-0.31175 0.45817,-0.13226 -0.6849,-1.69104 -1.36985,0.25035 -2.05002,-1.59184 -1.31314,-1.11004 -0.90221,-3.81191 -0.9825,-1.84692 0.69437,-2.23897 -2.0831,-0.68491 -1.12421,-2.15867 -0.4015,-1.2234 0.803,-1.17617 -2.22007,-1.1431 0.18894,-0.89748 -1.65797,-0.0661 -0.11337,-0.91165 -0.52904,-1.83274 0.90693,-0.11336 0.0897,-2.26259 0.79356,-0.87386 -0.84079,-1.69104 -0.11809,-0.76049 1.90832,-2.48932 0.45819,-0.13226 0.36843,-1.6438 1.19979,0.19839 -0.24563,-1.36984 0.46764,-0.42984 1.2234,-0.40623 0.68492,-1.93666 -0.98251,-1.84691 -0.17477,-3.17896 0.20312,-1.34622 -1.18562,-0.5007 0.35427,-1.34621 -0.4015,-1.2234 0.36843,-1.64381 -0.87858,-0.63768 0.52432,-1.79023 -0.99668,-1.54933 -0.91637,0.26452 -0.26924,-0.76521 -0.64713,1.02973 -2.10671,-0.085 -1.68159,0.53376 -2.38067,-0.85024 -0.70382,-1.23285 -0.60933,0.12753 -0.73216,-0.63295 -2.44681,0.803 -0.40622,-1.07224 0.0897,-2.25787 -0.70381,-1.23757 -4.06699,-0.1606 -1.62963,-0.8219 -1.28481,-1.86109 -0.46291,0.28342 -0.80301,1.17144 -3.43403,-0.89275 -1.35566,3.72216 -0.31176,0.28814 -1.12421,1.61546 -1.86108,1.28481 -1.05336,-0.0425 -0.84551,-1.54461 -0.80773,1.32732 -3.28288,-0.88803 -2.72078,0.0425 -3.89694,-0.60934 -0.3212,0.43929 -2.70188,-0.2598 -0.75104,-0.17949 -1.33205,-0.6613 -3.98669,-2.12088 -1.45486,-1.41707 -1.17144,-0.80301 0.51487,-1.63908 -0.7416,-0.33064 -0.4818,0.73687 -0.73216,-0.4818 0.18422,-0.89748 -1.81385,0.0756 -0.11809,-0.7605 0.59517,0.17478 -0.42039,-0.76995 -0.62824,0.57628 -0.39678,-1.36983 -0.77939,0.57155 -1.33204,-0.65658 0.62823,-0.581 -0.41567,-0.92109 -0.92582,0.56683 -2.70188,-0.41095 -1.43596,1.90359 -2.53656,-0.70381 -1.07225,0.40623 -2.01696,-2.34289 -1.50209,-0.21256 -0.85969,-1.09114 -1.51627,0.0897 -4.16146,-1.52571 -0.52431,-1.97917 -1.90832,-1.28481 -0.77467,0.4204 -1.48792,-0.51487 -3.51906,-2.55545 -1.9461,-0.37789 -0.63296,0.72743 -1.34149,-0.35427 -1.15728,-1.25174 0.24563,1.36511 -1.14783,2.22008 -2.08309,-0.68964 -2.01696,1.42651 -0.7416,-0.33065 -0.92582,0.41568 0.52904,-1.79024 -0.99667,-1.54932 0.34482,-1.03919 -1.33205,-0.6613 -1.52571,0.39206 -2.39957,-0.39678 0.052,-1.20451 -1.36511,0.0945 z m 77.8349,60.92926 0.43457,0.47236 1.36983,-0.24563 0.7416,0.33065 0.0614,2.11616 1.90832,1.43124 0.61878,-0.42512 -0.25507,-1.21868 1.19506,0.34954 0.7416,0.33065 -0.34482,1.04391 0.87386,0.78883 1.35567,0.0567 -0.37317,1.79495 0.7416,0.33065 -0.97777,5.54547 0.61406,-0.27869 0.39678,1.37456 1.20923,0.0472 0.0897,1.51627 -0.0331,0.75104 -3.53795,-2.10199 -2.12088,0.21257 -1.27064,1.61073 -1.05335,-0.0425 -0.0661,1.65797 -1.36511,0.0945 -1.33677,-0.50542 -1.34149,-0.35427 -2.38068,-0.85024 -0.67074,1.63435 -0.73688,-0.4818 -1.77606,-0.82662 -2.90499,0.93999 0.0189,-0.45347 1.06753,-0.25979 -1.60601,-1.42179 0.77466,-0.4204 -1.35094,-0.20784 -1.00139,-1.39817 1.4643,-2.65937 -0.52904,-1.82802 -0.75104,-0.0331 0.76994,-0.4204 -0.0803,-1.81385 0.65185,-1.18089 1.91304,1.28481 -0.0378,0.9022 0.91165,-0.11337 0.50542,-1.33677 1.21868,-0.25507 0.34955,-1.19506 1.36038,-0.0945 1.87053,-1.43124 0.42513,0.61879 0.45346,0.0189 0.77466,-0.57155 0.24563,-2.25786 z"
     id="path4429-3" />
  <path
     id="path4431-5"
     d="m 774.29404,238.72898 c -1.74119,1.0554 -1.99295,3.52166 -2.3087,5.76027 -0.14096,2.12864 1.14479,5.42833 -0.41459,6.80736 0.58867,2.37321 -0.17951,3.30946 -0.90275,5.90889 -0.38319,1.79946 1.89221,4.83603 -2.02507,3.70484 -2.34005,-0.67276 -3.62106,-2.29291 -6.40161,-1.58588 -0.89177,1.42477 0.39881,4.6425 -2.42831,5.33743 -2.38733,0.95456 -3.43863,3.66992 -3.39297,6.02134 -0.0944,1.63905 0.86674,5.04519 -1.57763,5.29576 2.26977,1.65594 2.59886,2.84914 4.93143,2.40193 2.56193,-0.89816 3.24461,2.85858 5.42735,2.69007 3.57477,1.07953 2.16475,2.51599 0.39194,3.67223 -2.08427,1.56115 1.19207,3.23693 2.14363,4.9624 3.85145,1.1055 -2.75759,4.09413 1.56085,3.04969 2.1668,1.2459 -1.13868,4.8726 -0.0221,5.95961 3.12236,-0.8675 1.45362,3.67725 2.19077,5.47951 -0.68477,1.68318 -3.35482,3.34848 -1.06918,5.30774 -1.39597,-2.27287 -2.99323,-3.06866 -5.39069,-2.91166 -2.03807,0.85156 -1.8041,4.32944 -5.06838,4.00155 -2.0919,1.48193 -4.58887,-0.4888 -5.40663,1.79589 -2.10274,0.48607 -4.0742,-2.29494 -5.32129,-3.97144 -1.14812,-2.4154 -5.17612,-3.87163 -6.72907,-1.29738 -0.0787,2.43368 -1.22039,4.89417 -0.84751,7.007 0.12045,2.06682 0.5273,2.90949 -0.7719,4.22919 -0.44135,0.70726 -1.15291,4.40309 0.82133,5.85324 0.26457,2.73882 3.21053,2.73957 5.10389,4.37128 2.03228,2.16763 4.98569,2.61877 7.4321,4.11503 2.31666,-2.26492 3.0764,2.85378 3.60283,4.29889 -2.76545,1.61637 -3.02457,2.47044 -3.11607,5.09256 1.84329,1.58969 -1.5781,3.62768 1.63884,5.33663 -0.6421,2.89724 2.95126,2.14036 4.74962,0.94383 1.99378,0.11243 2.23449,3.14171 5.10405,2.91019 2.10337,-1.12644 3.29782,-3.10439 5.85547,-2.83936 1.99049,-0.6688 4.18816,1.53338 6.58609,0.0293 1.34053,-2.13488 5.2941,1.17051 4.86848,-3.19498 0.46873,-2.57311 5.37534,1.73354 4.87513,-2.32795 1.29815,-1.48864 4.69285,-1.33593 6.27332,0.10574 0.051,2.92548 1.93692,2.15143 3.83049,3.66683 3.24616,-0.45977 1.63793,3.12026 4.99927,2.09391 3.52926,-1.69482 3.32888,2.07179 5.64674,2.95229 1.35028,1.97465 4.29509,-1.71645 3.8535,2.38945 -0.31838,2.35178 0.59,5.74013 3.21162,3.92264 2.19575,-0.24379 5.32819,1.92297 4.21604,3.72587 -2.31986,3.84923 3.41694,1.00927 3.09148,4.22874 0.27964,2.92693 4.15461,2.77567 6.42645,3.01452 2.08132,2.5374 2.58196,2.56752 4.10639,0.71827 1.05142,-2.95317 2.67472,0.13453 1.83062,2.0146 1.09255,1.65694 0.81666,3.98133 3.18954,5.22983 2.72161,0.46893 4.16356,-2.45584 6.61782,-3.02706 1.181,-1.45926 1.8444,-2.91295 3.21664,-5.03137 -1.74355,-1.77766 -2.27239,-4.18335 -0.50547,-6.20631 0.18051,-1.92798 2.98924,-2.43657 2.12743,-4.95946 -0.0983,-3.22631 -2.52011,-2.41585 -3.59,-4.52042 -1.35734,-2.28901 -0.18499,-5.00499 -0.11993,-7.48716 -4.4876,0.60641 0.70441,-4.10801 0.35354,-0.88025 0.56982,2.60602 2.38976,-2.4844 3.81085,-2.69415 2.30817,-1.3251 -3.12352,-3.30186 -0.48388,-3.88426 2.33156,-0.62222 2.71999,-0.8643 3.33323,-3.33591 0.57694,-2.19902 4.02548,-2.86404 5.67073,-2.39295 1.26203,1.04598 2.48804,6.41668 4.03456,3.45115 1.46838,-1.632 2.38293,-3.63769 3.80486,-5.28457 2.70381,1.07114 2.71269,-2.51435 2.44205,-4.42598 2.60785,0.73336 4.46426,-1.35286 6.86495,-1.50869 1.25745,-0.22518 1.55774,-4.16403 4.11211,-3.56535 1.31381,0.88545 4.24631,1.66963 4.46904,3.73288 1.22831,-0.14573 3.52663,-3.99819 1.70521,-4.91247 -3.15929,-2.22865 0.32436,-2.4199 1.24283,-1.61249 -1.37935,2.84951 2.0107,0.44467 2.56553,-1.05253 0.8662,-2.33944 -1.71367,-2.06559 -3.4163,-3.48771 -2.86619,-1.3273 -1.81899,-4.94017 -3.63243,-7.10632 2.13041,-3.05869 -2.6019,-2.36137 -2.64049,-5.47121 0.88901,-2.19142 -1.22916,-3.13156 -2.31954,-4.08408 -2.49891,-0.92535 -0.36875,-3.07063 -0.49497,-4.93493 1.16191,-1.83587 -1.1302,-4.32615 1.75168,-6.03363 1.6523,-1.60178 1.12858,-2.64583 3.41306,-3.76407 1.73514,-2.08076 -0.99921,-3.91304 -0.37356,-6.2537 0.34359,-2.43729 -1.4152,-2.91181 -0.98031,-5.54402 -0.4257,-1.48659 0.54754,-5.0294 -1.85799,-4.99501 -0.53924,-0.72107 -3.67201,1.09144 -5.60547,0.47575 -2.24798,-0.54152 -2.99817,-3.36269 -5.59883,-1.67559 -1.92642,-0.18885 0.42407,-5.53688 -3.15878,-4.467 -2.61171,0.88687 -4.43735,-1.93009 -5.8094,-2.49561 -1.09508,2.73814 -5.19177,-1.76412 -5.07696,2.58482 -0.76008,2.04471 -2.41658,4.70685 -4.86615,4.56194 -0.7597,-2.50757 -2.81309,0.73617 -5.34512,-1.09893 -2.32073,0.47482 -4.99349,-0.97403 -6.9371,-0.17309 -4.24438,-0.0951 -7.85032,-2.83875 -10.99078,-5.4024 1.02726,-2.55033 -1.37197,-1.33582 -2.48257,-2.56103 -0.74871,-0.47792 -0.52219,-1.90621 -2.33547,-1.55317 -1.35411,-1.73022 -1.09707,-1.9587 -4.47172,-1.96089 -1.15238,2.28752 -4.08668,1.60467 -5.85398,0.9441 -1.53109,-1.84863 -3.48361,-2.91605 -5.74532,-3.07769 -2.97684,-0.28001 -3.76597,-2.24536 -5.31966,-4.04942 -2.02684,-0.2788 -4.33831,-1.07214 -6.13187,-2.85714 -1.97296,-1.72485 -4.17578,1.26715 -5.61798,-1.64871 0.91087,3.13338 -1.60971,3.56198 -3.65323,3.36795 -3.02627,2.18682 -2.42121,0.2056 -3.37262,-2.12718 0.96838,-3.2721 -4.17233,-0.42995 -5.00632,-2.28712 0.43792,-1.54798 -1.86995,-0.0803 -2.50674,-1.50523 z m 77.8349,60.92926 c 3.11002,-0.41254 1.80354,2.70041 4.24362,3.9007 0.92508,-1.85634 2.20861,-1.29332 3.10151,1.07321 2.19422,0.10434 1.4089,3.28381 1.15587,5.40502 -1.49109,3.03202 1.83675,2.46704 1.90023,4.98209 -0.6916,1.55646 -3.57572,-2.68643 -5.69193,-1.13838 -2.10397,1.24046 -1.72245,3.53091 -4.13782,3.17604 -1.85395,-0.10395 -5.00227,-3.05434 -5.34706,0.0691 -1.09588,-2.27997 -5.73329,0.0267 -5.00158,-0.91862 0.27901,-1.50336 -0.88087,-1.73645 -2.46494,-3.54333 2.05356,-1.61241 0.4694,-4.70907 0.9055,-5.00883 -1.01375,-3.62946 2.29619,-2.77821 2.85272,-0.85821 1.51852,-1.03361 2.17808,-2.90009 4.26462,-3.19286 1.989,-1.18599 3.54736,-0.37147 3.77371,-3.61723 l 0.32918,-0.24283 z"
     style="fill:#02346d;fill-opacity:1;stroke:none;stroke-width:0.151154" />
  <g
     id="g842"
     transform="matrix(0.69000696,0,0,0.69000696,-11.561267,-122.08462)">
    <path
       style="fill:#02346d;fill-opacity:1;fill-rule:nonzero;stroke:none;stroke-width:1.85888"
       d="M 260.61719,163.03906 C 146.96459,200.52352 64.927734,307.55428 64.927734,433.76367 c 0,157.41717 127.612126,285.02735 285.029296,285.02735 157.41717,0 285.02731,-127.61018 285.02735,-285.02735 0,-5.50475 -0.17256,-10.96881 -0.48047,-16.39648 C 620.08757,405.24713 604.8505,390.4242 589.11328,374.48242 541.4656,326.21539 488.89672,268.0502 450.30664,248.99023 409.78233,228.97491 340.43071,202.1255 285.01367,175.35156 c -8.51868,-4.11567 -16.67635,-8.2197 -24.39648,-12.3125 z m -1.30274,147.41602 c 32.40119,0 60.20675,19.65659 72.15235,47.69336 h 28.56836 c 11.94504,-28.03677 39.7492,-47.69336 72.15039,-47.69336 43.29697,0 78.39648,35.09951 78.39648,78.39648 0,43.29511 -35.09951,78.39258 -78.39648,78.39258 -43.29883,0 -78.39453,-35.09747 -78.39453,-78.39258 0,-6.75116 0.85436,-13.30217 2.45898,-19.55273 h -20.99805 c 1.60471,6.25056 2.45899,12.80157 2.45899,19.55273 0,43.29511 -35.09766,78.39258 -78.39649,78.39258 -43.29511,0 -78.39453,-35.09747 -78.39453,-78.39258 0,-43.29697 35.09942,-78.39648 78.39453,-78.39648 z m 28.47266,222.60156 c 0.21563,0.24351 22.05582,24.33008 58.28906,24.33008 35.91351,0 52.2875,-23.215 52.44922,-23.44922 l 15.31836,10.53125 c -0.88483,1.28634 -22.18419,31.50781 -67.76758,31.50781 -44.91977,0 -71.16098,-29.39946 -72.25586,-30.65234 z"
       transform="translate(16.628309,185.64197)"
       id="path3028-3" />
    <g
       id="g3034"
       transform="matrix(1.7426975,0,0,-1.7426975,290.57268,549.36511)"
       style="fill:#ffdd00;fill-opacity:1;stroke:#ffdd00;stroke-opacity:1" />
    <g
       id="g3038"
       transform="matrix(1.7426975,0,0,-1.7426975,354.33999,574.49341)"
       style="fill:#ffdd00;fill-opacity:1" />
    <path
       style="fill:#02346d;fill-opacity:1;stroke:none;stroke-width:12.8;stroke-linecap:butt;stroke-linejoin:miter;stroke-miterlimit:4;stroke-dasharray:none;stroke-opacity:1"
       d="m 231.43106,280.70315 c -30.65192,38.21649 159.85854,103.31297 240.27284,143.03031 80.4143,39.71733 203.55568,228.51575 248.41957,187.59232 44.86389,-40.92342 -67.5363,-145.88434 -63.7276,-224.86965 3.80873,-78.98532 -9.82012,-118.17804 -60.80036,-148.79719 -50.98025,-30.61915 -129.9695,-11.16767 -179.84539,20.64797 -49.87589,31.81565 -153.66715,-15.82024 -184.31906,22.39624 z"
       id="path3522-6" />
    <g
       id="g4563">
      <g
         style="fill:#02346d;fill-opacity:1"
         transform="matrix(1.7426975,0,0,-1.7426975,303.52126,574.49341)"
         id="g3042">
        <path
           id="path3044-7"
           style="fill:#02346d;fill-opacity:1;fill-rule:nonzero;stroke:none;stroke-width:1.06667"
           d="m 0,0 c 0,-8.7381333 -7.0858667,-15.822933 -15.825067,-15.822933 -8.7392,0 -15.824,7.0847997 -15.824,15.822933 0,8.7413333 7.0848,15.825067 15.824,15.825067 C -7.0858667,15.825067 0,8.7413333 0,0" />
      </g>
      <g
         style="fill:#02346d;fill-opacity:1"
         transform="matrix(1.7426975,0,0,-1.7426975,475.20066,574.49341)"
         id="g3050">
        <path
           id="path3052-5"
           style="fill:#02346d;fill-opacity:1;fill-rule:nonzero;stroke:none;stroke-width:1.06667"
           d="m 0,0 c 0,-8.3605333 -6.7786667,-15.141333 -15.141333,-15.141333 -8.362667,0 -15.141334,6.7807997 -15.141334,15.141333 0,8.3626667 6.778667,15.1424 15.141334,15.1424 C -6.7786667,15.1424 0,8.3626667 0,0" />
      </g>
    </g>
    <g
       id="g3054"
       transform="matrix(1.7426975,0,0,-1.7426975,362.70401,761.61841)"
       style="fill:#ffdd00;fill-opacity:1" />
  </g>
</svg>
